<svg width="42" height="28" viewBox="0 0 42 28" fill="none" xmlns="http://www.w3.org/2000/svg">
<g clip-path="url(#clip0_16_2)">
<path d="M42 25.8236H0V27.9997H42V25.8236Z" fill="#CC0204"/>
<path d="M42 21.5199H0V23.696H42V21.5199Z" fill="#CC0204"/>
<path d="M42 17.2159H0V19.3919H42V17.2159Z" fill="#CC0204"/>
<path d="M42 12.9121H0V15.0882H42V12.9121Z" fill="#CC0204"/>
<path d="M42 8.60806H0V10.7841H42V8.60806Z" fill="#CC0204"/>
<path d="M42 4.30432H0V6.4804H42V4.30432Z" fill="#CC0204"/>
<path d="M42 0.000198364H0V2.17628H42V0.000198364Z" fill="#CC0204"/>
<path d="M20.4402 0H0.0141907V15.0917H20.4402V0Z" fill="#012D78"/>
<path d="M2.21612 1.47517L2.7092 1.0795L2.1051 1.07254L1.91783 0.577146V0.558884L1.91436 0.56816L1.91088 0.558884V0.577146L1.72333 1.07254L1.11951 1.0795L1.6123 1.47517L1.43171 2.08622L1.91436 1.70707L2.39671 2.08622L2.21612 1.47517Z" fill="white"/>
<path d="M5.54131 1.44734L6.0344 1.05166L5.43029 1.04471L5.24303 0.549603V0.531052L5.23955 0.540328L5.23607 0.531052V0.549603L5.04852 1.04471L4.4447 1.05166L4.9375 1.44734L4.7569 2.05839L5.23955 1.67924L5.72191 2.05839L5.54131 1.44734Z" fill="white"/>
<path d="M8.86683 1.44734L9.35962 1.05166L8.75552 1.04471L8.56825 0.549603V0.531052L8.56478 0.540328L8.5613 0.531052V0.549603L8.37375 1.04471L7.76993 1.05166L8.26272 1.44734L8.08213 2.05839L8.56478 1.67924L9.04714 2.05839L8.86683 1.44734Z" fill="white"/>
<path d="M12.192 1.44734L12.6848 1.05166L12.0807 1.04471L11.8935 0.549603V0.531052L11.89 0.540328L11.8865 0.531052V0.549603L11.6989 1.04471L11.0951 1.05166L11.5879 1.44734L11.4073 2.05839L11.89 1.67924L12.3723 2.05839L12.192 1.44734Z" fill="white"/>
<path d="M15.5172 1.44734L16.01 1.05166L15.4059 1.04471L15.2186 0.549603V0.531052L15.2152 0.540328L15.2117 0.531052V0.549603L15.0241 1.04471L14.4203 1.05166L14.9131 1.44734L14.7328 2.05839L15.2152 1.67924L15.6975 2.05839L15.5172 1.44734Z" fill="white"/>
<path d="M18.8424 1.44734L19.3352 1.05166L18.7314 1.04471L18.5438 0.549603V0.531052L18.5404 0.540328L18.5369 0.531052V0.549603L18.3493 1.04471L17.7455 1.05166L18.2383 1.44734L18.058 2.05839L18.5404 1.67924L19.0227 2.05839L18.8424 1.44734Z" fill="white"/>
<path d="M2.21612 13.9499L2.7092 13.5542L2.1051 13.5472L1.91783 13.0518V13.0333L1.91436 13.0425L1.91088 13.0333V13.0518L1.72333 13.5472L1.11951 13.5542L1.6123 13.9499L1.43171 14.5606L1.91436 14.1815L2.39671 14.5606L2.21612 13.9499Z" fill="white"/>
<path d="M5.54131 13.922L6.0344 13.5263L5.43029 13.5194L5.24303 13.024V13.0057L5.23955 13.0147L5.23607 13.0057V13.024L5.04852 13.5194L4.4447 13.5263L4.9375 13.922L4.7569 14.5328L5.23955 14.1536L5.72191 14.5328L5.54131 13.922Z" fill="white"/>
<path d="M8.86683 13.922L9.35962 13.5263L8.75552 13.5194L8.56825 13.024V13.0057L8.56478 13.0147L8.5613 13.0057V13.024L8.37375 13.5194L7.76993 13.5263L8.26272 13.922L8.08213 14.5328L8.56478 14.1536L9.04714 14.5328L8.86683 13.922Z" fill="white"/>
<path d="M12.192 13.922L12.6848 13.5263L12.0807 13.5194L11.8935 13.024V13.0057L11.89 13.0147L11.8865 13.0057V13.024L11.6989 13.5194L11.0951 13.5263L11.5879 13.922L11.4073 14.5328L11.89 14.1536L12.3723 14.5328L12.192 13.922Z" fill="white"/>
<path d="M15.5172 13.922L16.01 13.5263L15.4059 13.5194L15.2186 13.024V13.0057L15.2152 13.0147L15.2117 13.0057V13.024L15.0241 13.5194L14.4203 13.5263L14.9131 13.922L14.7328 14.5328L15.2152 14.1536L15.6975 14.5328L15.5172 13.922Z" fill="white"/>
<path d="M18.8424 13.922L19.3352 13.5263L18.7314 13.5194L18.5438 13.024V13.0057L18.5404 13.0147L18.5369 13.0057V13.024L18.3493 13.5194L17.7455 13.5263L18.2383 13.922L18.058 14.5328L18.5404 14.1536L19.0227 14.5328L18.8424 13.922Z" fill="white"/>
<path d="M3.87885 3.16194L4.37165 2.76626L3.76783 2.7596L3.58028 2.2642V2.24565L3.5768 2.25493L3.57332 2.24565V2.2642L3.38606 2.7596L2.78195 2.76626L3.27475 3.16194L3.09444 3.77299L3.5768 3.39384L4.05945 3.77299L3.87885 3.16194Z" fill="white"/>
<path d="M7.20405 3.1344L7.69684 2.73872L7.09303 2.73176L6.90547 2.23637V2.21811L6.902 2.2271L6.89852 2.21811V2.23637L6.71126 2.73176L6.10715 2.73872L6.60023 3.1344L6.41964 3.74516L6.902 3.36601L7.38464 3.74516L7.20405 3.1344Z" fill="white"/>
<path d="M10.5293 3.1344L11.0221 2.73872L10.4183 2.73176L10.2307 2.23637V2.21811L10.2272 2.2271L10.2237 2.21811V2.23637L10.0365 2.73176L9.43237 2.73872L9.92546 3.1344L9.74486 3.74516L10.2272 3.36601L10.7099 3.74516L10.5293 3.1344Z" fill="white"/>
<path d="M13.8545 3.1344L14.3473 2.73872L13.7434 2.73176L13.5559 2.23637V2.21811L13.5524 2.2271L13.5489 2.21811V2.23637L13.3617 2.73176L12.7576 2.73872L13.2507 3.1344L13.0701 3.74516L13.5524 3.36601L14.0351 3.74516L13.8545 3.1344Z" fill="white"/>
<path d="M17.1797 3.1344L17.6725 2.73872L17.0686 2.73176L16.8811 2.23637V2.21811L16.8776 2.2271L16.8741 2.21811V2.23637L16.6869 2.73176L16.0828 2.73872L16.5758 3.1344L16.3953 3.74516L16.8776 3.36601L17.3603 3.74516L17.1797 3.1344Z" fill="white"/>
<path d="M2.21612 4.7032L2.7092 4.30752L2.1051 4.30057L1.91783 3.80517V3.78691L1.91436 3.7959L1.91088 3.78691V3.80517L1.72333 4.30057L1.11951 4.30752L1.6123 4.7032L1.43171 5.31396L1.91436 4.9351L2.39671 5.31396L2.21612 4.7032Z" fill="white"/>
<path d="M5.54131 4.67537L6.0344 4.27969L5.43029 4.27273L5.24303 3.77734V3.75908L5.23955 3.76836L5.23607 3.75908V3.77734L5.04852 4.27273L4.4447 4.27969L4.9375 4.67537L4.7569 5.28642L5.23955 4.90727L5.72191 5.28642L5.54131 4.67537Z" fill="white"/>
<path d="M8.86683 4.67537L9.35962 4.27969L8.75552 4.27273L8.56825 3.77734V3.75908L8.56478 3.76836L8.5613 3.75908V3.77734L8.37375 4.27273L7.76993 4.27969L8.26272 4.67537L8.08213 5.28642L8.56478 4.90727L9.04714 5.28642L8.86683 4.67537Z" fill="white"/>
<path d="M12.192 4.67537L12.6848 4.27969L12.0807 4.27273L11.8935 3.77734V3.75908L11.89 3.76836L11.8865 3.75908V3.77734L11.6989 4.27273L11.0951 4.27969L11.5879 4.67537L11.4073 5.28642L11.89 4.90727L12.3723 5.28642L12.192 4.67537Z" fill="white"/>
<path d="M15.5172 4.67537L16.01 4.27969L15.4059 4.27273L15.2186 3.77734V3.75908L15.2152 3.76836L15.2117 3.75908V3.77734L15.0241 4.27273L14.4203 4.27969L14.9131 4.67537L14.7328 5.28642L15.2152 4.90727L15.6975 5.28642L15.5172 4.67537Z" fill="white"/>
<path d="M18.8424 4.67537L19.3352 4.27969L18.7314 4.27273L18.5438 3.77734V3.75908L18.5404 3.76836L18.5369 3.75908V3.77734L18.3493 4.27273L17.7455 4.27969L18.2383 4.67537L18.058 5.28642L18.5404 4.90727L19.0227 5.28642L18.8424 4.67537Z" fill="white"/>
<path d="M3.87711 6.38996L4.36991 5.99428L3.76609 5.98733L3.57854 5.49193V5.47367L3.57506 5.48295L3.57158 5.47367V5.49193L3.38432 5.98733L2.78021 5.99428L3.27301 6.38996L3.0927 7.00101L3.57506 6.62186L4.05771 7.00101L3.87711 6.38996Z" fill="white"/>
<path d="M7.20231 6.36214L7.6951 5.96646L7.09129 5.95979L6.90373 5.4644V5.44585L6.90026 5.45512L6.89678 5.44585V5.4644L6.70952 5.95979L6.10541 5.96646L6.59849 6.36214L6.4179 6.97319L6.90026 6.59403L7.3829 6.97319L7.20231 6.36214Z" fill="white"/>
<path d="M10.5275 6.36214L11.0203 5.96646L10.4165 5.95979L10.2289 5.4644V5.44585L10.2255 5.45512L10.222 5.44585V5.4644L10.0347 5.95979L9.4306 5.96646L9.92369 6.36214L9.74309 6.97319L10.2255 6.59403L10.7081 6.97319L10.5275 6.36214Z" fill="white"/>
<path d="M13.8527 6.36214L14.3455 5.96646L13.7417 5.95979L13.5542 5.4644V5.44585L13.5507 5.45512L13.5472 5.44585V5.4644L13.3599 5.95979L12.7558 5.96646L13.2489 6.36214L13.0683 6.97319L13.5507 6.59403L14.0333 6.97319L13.8527 6.36214Z" fill="white"/>
<path d="M17.1779 6.36214L17.6707 5.96646L17.0669 5.95979L16.8794 5.4644V5.44585L16.8759 5.45512L16.8724 5.44585V5.4644L16.6851 5.95979L16.081 5.96646L16.5741 6.36214L16.3935 6.97319L16.8759 6.59403L17.3585 6.97319L17.1779 6.36214Z" fill="white"/>
<path d="M2.21612 7.93818L2.7092 7.5425L2.1051 7.53554L1.91783 7.04015V7.02189L1.91436 7.03087L1.91088 7.02189V7.04015L1.72333 7.53554L1.11951 7.5425L1.6123 7.93818L1.43171 8.54894L1.91436 8.16979L2.39671 8.54894L2.21612 7.93818Z" fill="white"/>
<path d="M5.54131 7.91035L6.0344 7.51468L5.43029 7.50772L5.24303 7.01233V6.99406L5.23955 7.00305L5.23607 6.99406V7.01233L5.04852 7.50772L4.4447 7.51468L4.9375 7.91035L4.7569 8.52112L5.23955 8.14225L5.72191 8.52112L5.54131 7.91035Z" fill="white"/>
<path d="M8.86683 7.91035L9.35962 7.51468L8.75552 7.50772L8.56825 7.01233V6.99406L8.56478 7.00305L8.5613 6.99406V7.01233L8.37375 7.50772L7.76993 7.51468L8.26272 7.91035L8.08213 8.52112L8.56478 8.14225L9.04714 8.52112L8.86683 7.91035Z" fill="white"/>
<path d="M12.192 7.91035L12.6848 7.51468L12.0807 7.50772L11.8935 7.01233V6.99406L11.89 7.00305L11.8865 6.99406V7.01233L11.6989 7.50772L11.0951 7.51468L11.5879 7.91035L11.4073 8.52112L11.89 8.14225L12.3723 8.52112L12.192 7.91035Z" fill="white"/>
<path d="M15.5172 7.91035L16.01 7.51468L15.4059 7.50772L15.2186 7.01233V6.99406L15.2152 7.00305L15.2117 6.99406V7.01233L15.0241 7.50772L14.4203 7.51468L14.9131 7.91035L14.7328 8.52112L15.2152 8.14225L15.6975 8.52112L15.5172 7.91035Z" fill="white"/>
<path d="M18.8424 7.91035L19.3352 7.51468L18.7314 7.50772L18.5438 7.01233V6.99406L18.5404 7.00305L18.5369 6.99406V7.01233L18.3493 7.50772L17.7455 7.51468L18.2383 7.91035L18.058 8.52112L18.5404 8.14225L19.0227 8.52112L18.8424 7.91035Z" fill="white"/>
<path d="M3.87711 9.62495L4.36991 9.22928L3.76609 9.22232L3.57854 8.72693V8.70866L3.57506 8.71794L3.57158 8.70866V8.72693L3.38432 9.22232L2.78021 9.22928L3.27301 9.62495L3.0927 10.2357L3.57506 9.85685L4.05771 10.2357L3.87711 9.62495Z" fill="white"/>
<path d="M7.20231 9.59713L7.6951 9.20145L7.09129 9.19449L6.90373 8.6991V8.68084L6.90026 8.69012L6.89678 8.68084V8.6991L6.70952 9.19449L6.10541 9.20145L6.59849 9.59713L6.4179 10.2082L6.90026 9.82903L7.3829 10.2082L7.20231 9.59713Z" fill="white"/>
<path d="M10.5275 9.59713L11.0203 9.20145L10.4165 9.19449L10.2289 8.6991V8.68084L10.2255 8.69012L10.222 8.68084V8.6991L10.0347 9.19449L9.4306 9.20145L9.92369 9.59713L9.74309 10.2082L10.2255 9.82903L10.7081 10.2082L10.5275 9.59713Z" fill="white"/>
<path d="M13.8527 9.59713L14.3455 9.20145L13.7417 9.19449L13.5542 8.6991V8.68084L13.5507 8.69012L13.5472 8.68084V8.6991L13.3599 9.19449L12.7558 9.20145L13.2489 9.59713L13.0683 10.2082L13.5507 9.82903L14.0333 10.2082L13.8527 9.59713Z" fill="white"/>
<path d="M17.1779 9.59713L17.6707 9.20145L17.0669 9.19449L16.8794 8.6991V8.68084L16.8759 8.69012L16.8724 8.68084V8.6991L16.6851 9.19449L16.081 9.20145L16.5741 9.59713L16.3935 10.2082L16.8759 9.82903L17.3585 10.2082L17.1779 9.59713Z" fill="white"/>
<path d="M2.21612 11.041L2.7092 10.6453L2.1051 10.6383L1.91783 10.1432V10.1247L1.91436 10.134L1.91088 10.1247V10.1432L1.72333 10.6383L1.11951 10.6453L1.6123 11.041L1.43171 11.652L1.91436 11.2729L2.39671 11.652L2.21612 11.041Z" fill="white"/>
<path d="M5.54131 11.0134L6.0344 10.6178L5.43029 10.6108L5.24303 10.1154V10.0969L5.23955 10.1061L5.23607 10.0969V10.1154L5.04852 10.6108L4.4447 10.6178L4.9375 11.0134L4.7569 11.6242L5.23955 11.245L5.72191 11.6242L5.54131 11.0134Z" fill="white"/>
<path d="M8.86683 11.0134L9.35962 10.6178L8.75552 10.6108L8.56825 10.1154V10.0969L8.56478 10.1061L8.5613 10.0969V10.1154L8.37375 10.6108L7.76993 10.6178L8.26272 11.0134L8.08213 11.6242L8.56478 11.245L9.04714 11.6242L8.86683 11.0134Z" fill="white"/>
<path d="M12.192 11.0134L12.6848 10.6178L12.0807 10.6108L11.8935 10.1154V10.0969L11.89 10.1061L11.8865 10.0969V10.1154L11.6989 10.6108L11.0951 10.6178L11.5879 11.0134L11.4073 11.6242L11.89 11.245L12.3723 11.6242L12.192 11.0134Z" fill="white"/>
<path d="M15.5172 11.0134L16.01 10.6178L15.4059 10.6108L15.2186 10.1154V10.0969L15.2152 10.1061L15.2117 10.0969V10.1154L15.0241 10.6108L14.4203 10.6178L14.9131 11.0134L14.7328 11.6242L15.2152 11.245L15.6975 11.6242L15.5172 11.0134Z" fill="white"/>
<path d="M18.8424 11.0134L19.3352 10.6178L18.7314 10.6108L18.5438 10.1154V10.0969L18.5404 10.1061L18.5369 10.0969V10.1154L18.3493 10.6108L17.7455 10.6178L18.2383 11.0134L18.058 11.6242L18.5404 11.245L19.0227 11.6242L18.8424 11.0134Z" fill="white"/>
<path d="M3.87711 12.728L4.36991 12.3324L3.76609 12.3254L3.57854 11.83V11.8118L3.57506 11.8207L3.57158 11.8118V11.83L3.38432 12.3254L2.78021 12.3324L3.27301 12.728L3.0927 13.3388L3.57506 12.9596L4.05771 13.3388L3.87711 12.728Z" fill="white"/>
<path d="M7.20231 12.7002L7.6951 12.3045L7.09129 12.2976L6.90373 11.8022V11.7839L6.90026 11.7929L6.89678 11.7839V11.8022L6.70952 12.2976L6.10541 12.3045L6.59849 12.7002L6.4179 13.311L6.90026 12.9321L7.3829 13.311L7.20231 12.7002Z" fill="white"/>
<path d="M10.5275 12.7002L11.0203 12.3045L10.4165 12.2976L10.2289 11.8022V11.7839L10.2255 11.7929L10.222 11.7839V11.8022L10.0347 12.2976L9.4306 12.3045L9.92369 12.7002L9.74309 13.311L10.2255 12.9321L10.7081 13.311L10.5275 12.7002Z" fill="white"/>
<path d="M13.8527 12.7002L14.3455 12.3045L13.7417 12.2976L13.5542 11.8022V11.7839L13.5507 11.7929L13.5472 11.7839V11.8022L13.3599 12.2976L12.7558 12.3045L13.2489 12.7002L13.0683 13.311L13.5507 12.9321L14.0333 13.311L13.8527 12.7002Z" fill="white"/>
<path d="M17.1779 12.7002L17.6707 12.3045L17.0669 12.2976L16.8794 11.8022V11.7839L16.8759 11.7929L16.8724 11.7839V11.8022L16.6851 12.2976L16.081 12.3045L16.5741 12.7002L16.3935 13.311L16.8759 12.9321L17.3585 13.311L17.1779 12.7002Z" fill="white"/>
</g>
<defs>
<clipPath id="clip0_16_2">
<rect width="42" height="28" fill="white"/>
</clipPath>
</defs>
</svg>
