<?xml version="1.0" encoding="UTF-8"?>
<svg version="1.1" xmlns="http://www.w3.org/2000/svg" width="600" height="600">
<path d="M0 0 C1.38671875 1.99609375 1.38671875 1.99609375 2.6875 4.4375 C3.12449219 5.24058594 3.56148437 6.04367188 4.01171875 6.87109375 C5 9 5 9 5 11 C5.99 11.495 5.99 11.495 7 12 C10 17.42307692 10 17.42307692 10 20 C10.66 20.33 11.32 20.66 12 21 C12 21.99 12 22.98 12 24 C12.66 24.33 13.32 24.66 14 25 C15.13573475 27.06497228 16.1730739 29.12546231 17.1875 31.25 C20.90146662 38.84985947 24.74318952 46.38037956 28.6312561 53.89221191 C29.6034498 55.77085688 30.57362316 57.65053534 31.54370117 59.53027344 C35.27033781 66.73878764 39.08775491 73.89061345 43 81 C44.46602641 83.68339921 45.92346911 86.37123747 47.375 89.0625 C47.72949219 89.71154297 48.08398438 90.36058594 48.44921875 91.02929688 C51 95.77138634 51 95.77138634 51 98 C51.66 98.33 52.32 98.66 53 99 C54.301041 101.37776458 55.51207419 103.74843526 56.6875 106.1875 C57.39947848 107.64205492 58.11172356 109.09647936 58.82421875 110.55078125 C59.3644165 111.65993896 59.3644165 111.65993896 59.91552734 112.79150391 C60.95359764 114.90550299 62.01232206 117.00733024 63.08203125 119.10546875 C63.40534424 119.74137939 63.72865723 120.37729004 64.06176758 121.0324707 C64.95689957 122.79035807 65.85341491 124.54754082 66.75 126.3046875 C68 129 68 129 68 131 C68.66 131.33 69.32 131.66 70 132 C71.125 134.0625 71.125 134.0625 72 136 C76.20591017 129.14334513 80.13851105 122.18518205 83.875 115.0625 C84.37257813 114.13115234 84.87015625 113.19980469 85.3828125 112.24023438 C85.85203125 111.34755859 86.32125 110.45488281 86.8046875 109.53515625 C87.22733887 108.734729 87.64999023 107.93430176 88.08544922 107.10961914 C89.19887374 104.92447339 89.19887374 104.92447339 89 102 C89.99 102 90.98 102 92 102 C92.26699707 101.13697266 92.53399414 100.27394531 92.80908203 99.38476562 C93.99263772 96.0209247 95.41297574 93.00701252 97.0546875 89.84375 C97.3522142 89.26825409 97.64974091 88.69275818 97.95628357 88.099823 C98.92454832 86.23076273 99.89947363 84.36527908 100.875 82.5 C101.5537433 81.19488336 102.23237162 79.88970693 102.91088867 78.58447266 C107.88636525 69.03539939 113.00794035 59.57051538 118.19140625 50.1328125 C121.08443751 44.85972027 123.93171236 39.56338874 126.75 34.25 C127.18094971 33.44481934 127.61189941 32.63963867 128.0559082 31.81005859 C130.21742437 28.10809863 130.21742437 28.10809863 131 24 C131.66 24 132.32 24 133 24 C133.22429687 23.21367187 133.44859375 22.42734375 133.6796875 21.6171875 C135.40996423 16.87684356 137.73873891 12.56331194 140.125 8.125 C140.59292969 7.24585938 141.06085938 6.36671875 141.54296875 5.4609375 C142.6912093 3.30505729 143.84363903 1.15153223 145 -1 C148.89053845 -0.45386074 152.23101928 0.32064754 155.8125 1.9375 C156.58207031 2.27652344 157.35164063 2.61554688 158.14453125 2.96484375 C160 4 160 4 161 6 C161.85464844 6.26941406 162.70929688 6.53882813 163.58984375 6.81640625 C167.77293394 8.26826917 170.95953572 10.40669507 174.5625 12.9375 C175.25706299 13.41968994 175.95162598 13.90187988 176.66723633 14.39868164 C182.46287552 18.48641117 187.89597977 22.92227587 193.23046875 27.58984375 C195.05938416 29.18143868 196.93797272 30.71787544 198.86328125 32.19140625 C199.56839844 32.78824219 200.27351563 33.38507813 201 34 C201 34.66 201 35.32 201 36 C201.75796875 36.2475 202.5159375 36.495 203.296875 36.75 C206.32130509 38.14858039 207.34757616 39.30970366 209.25 42 C211.71570306 45.34933485 214.26678845 48.41700904 217.125 51.4375 C226.30672165 61.52490167 233.87218724 73.09959974 241.3125 84.5 C241.78671387 85.22388916 242.26092773 85.94777832 242.74951172 86.69360352 C246 91.75229025 246 91.75229025 246 94 C246.66 94.33 247.32 94.66 248 95 C248.95800781 96.65136719 248.95800781 96.65136719 249.953125 98.796875 C250.50637451 99.97733398 250.50637451 99.97733398 251.07080078 101.18164062 C251.45993652 102.02919922 251.84907227 102.87675781 252.25 103.75 C252.65331543 104.61818359 253.05663086 105.48636719 253.47216797 106.38085938 C254.28226369 108.12587993 255.09007578 109.87196259 255.89550781 111.61914062 C256.80624849 113.58234644 257.73991751 115.53489866 258.6796875 117.484375 C264.54479903 129.72185095 268.98595806 142.60119013 273.16015625 155.5 C273.92328286 157.77163271 274.7822371 159.96982247 275.6875 162.1875 C277.30388986 166.36024557 277.70194509 170.56000967 278 175 C278.99 175.33 279.98 175.66 281 176 C280.34 176 279.68 176 279 176 C279.28875 176.80179688 279.5775 177.60359375 279.875 178.4296875 C281.19600321 182.62203796 282.11670898 186.82286321 283 191.125 C283.17587646 191.97320312 283.35175293 192.82140625 283.53295898 193.6953125 C284.63014553 199.04416059 285.66869742 204.39288109 286.484375 209.79296875 C286.89668129 212.35738893 287.37399408 214.88174913 287.890625 217.42578125 C290.87226967 232.76727486 289.58907587 245.38264605 281 259 C279.4309969 260.9162415 277.8867718 262.37527984 276 264 C275.34 264.99 274.68 265.98 274 267 C272.33768236 268.2313464 270.6212821 269.39094062 268.875 270.5 C267.96492188 271.0878125 267.05484375 271.675625 266.1171875 272.28125 C257.96936918 276.77378141 250.77025518 277.66846109 241.57275391 278.17822266 C240.90753385 278.21779437 240.24231379 278.25736609 239.55693555 278.29813695 C221.63439127 279.35069615 203.6972898 279.23870059 185.75134706 279.15992022 C180.70171055 279.14003157 175.65205122 279.13218185 170.60238647 279.12265015 C161.77408034 279.10434738 152.94582385 279.0782656 144.11755371 279.04724121 C130.74443609 279.00038453 117.3713059 278.96893582 103.99814081 278.93923998 C79.20206685 278.88353589 54.40611638 278.80588742 29.61015701 278.71243668 C15.42637947 278.65912672 1.24262134 278.61112188 -12.94120257 278.57250018 C-24.3076537 278.54140632 -35.67405601 278.50275476 -47.04046023 278.45720994 C-53.34385951 278.43214772 -59.6472293 278.41029536 -65.95066452 278.39665604 C-71.79755664 278.38386294 -77.6443404 278.36183967 -83.49117279 278.33261681 C-85.62613129 278.32355684 -87.76110712 278.31785449 -89.89608383 278.31578636 C-92.8092122 278.31245687 -95.72203537 278.29696664 -98.63510132 278.2784729 C-99.47372503 278.28040763 -100.31234874 278.28234237 -101.17638528 278.28433573 C-106.4263307 278.23453511 -110.95026703 277.45308624 -116 276 C-116 275.34 -116 274.68 -116 274 C-116.886875 273.74476563 -117.77375 273.48953125 -118.6875 273.2265625 C-127.02357935 270.13985387 -133.28058472 263.34625964 -138 256 C-138.38929688 255.41347656 -138.77859375 254.82695312 -139.1796875 254.22265625 C-147.76173086 240.40995143 -143.96854277 223.14515016 -141.34179688 208.08056641 C-140.68298336 204.07027442 -140.33181578 200.04815251 -140 196 C-139.34 196 -138.68 196 -138 196 C-137.9175 194.845 -137.835 193.69 -137.75 192.5 C-135.59758379 173.70998821 -128.75693626 154.27656458 -121.77783203 136.78320312 C-120.67808526 134.00251192 -120 132.02689014 -120 129 C-119.34 129 -118.68 129 -118 129 C-117.83056885 128.45472656 -117.6611377 127.90945313 -117.48657227 127.34765625 C-115.67416152 121.694819 -113.49602407 116.35343659 -110.9375 111 C-110.54828369 110.18329834 -110.15906738 109.36659668 -109.75805664 108.52514648 C-98.68800792 85.70432366 -84.1356987 64.10141243 -66.59375 45.76953125 C-63.97468143 43.05923986 -63.97468143 43.05923986 -61.78125 40.13671875 C-61.1934375 39.43160156 -60.605625 38.72648437 -60 38 C-59.34 38 -58.68 38 -58 38 C-58 37.34 -58 36.68 -58 36 C-57.34 36 -56.68 36 -56 36 C-56 35.34 -56 34.68 -56 34 C-53.57561936 31.41750758 -50.73271404 29.24645169 -48 27 C-47.49597656 26.58508301 -46.99195313 26.17016602 -46.47265625 25.74267578 C-10.66032609 -3.55344203 -10.66032609 -3.55344203 0 0 Z M-61 162 C-62.38020695 164.76041391 -61.6509535 166.03491341 -60.86352539 168.99926758 C-60.58870834 170.04759766 -60.3138913 171.09592773 -60.03074646 172.17602539 C-59.72282669 173.32063232 -59.41490692 174.46523926 -59.09765625 175.64453125 C-58.78453995 176.82998535 -58.47142365 178.01543945 -58.14881897 179.23681641 C-57.30174763 182.43727853 -56.44830772 185.63590424 -55.59165192 188.83380508 C-54.88922202 191.46045051 -54.19206684 194.08848255 -53.49502945 196.71656322 C-48.97191114 213.76899883 -44.3991832 230.80846287 -39.60986328 247.78833008 C-39.2370443 249.14035857 -38.87779027 250.49633846 -38.54248047 251.8581543 C-37.76590222 254.92427537 -36.8689257 257.95876007 -36 261 C35.28 261 106.56 261 180 261 C181.95863275 256.42985692 183.5259164 252.57033094 184.7890625 247.875 C185.09070313 246.75609375 185.39234375 245.6371875 185.703125 244.484375 C186.00734375 243.33453125 186.3115625 242.1846875 186.625 241 C187.09292969 239.27523437 187.09292969 239.27523437 187.5703125 237.515625 C188.75236392 233.09312226 189.89010262 228.7873245 190.5234375 224.25 C190.91789067 221.5599587 191.46012797 219.47607258 192.34741211 216.94018555 C194.05721488 211.91006308 195.50805326 206.82820372 196.91796875 201.70703125 C197.18007645 200.75736984 197.44218414 199.80770844 197.7122345 198.82926941 C198.26065202 196.83716813 198.80764573 194.84467438 199.35327148 192.85180664 C200.18855443 189.80865846 201.03462567 186.7686341 201.88085938 183.72851562 C202.41473051 181.78403745 202.94795615 179.83938191 203.48046875 177.89453125 C203.73354294 176.99128616 203.98661713 176.08804108 204.24736023 175.15742493 C204.47792618 174.30601425 204.70849213 173.45460358 204.94604492 172.57739258 C205.15017502 171.83620682 205.35430511 171.09502106 205.56462097 170.33137512 C206.18357412 167.41227409 206.18357412 167.41227409 206 162 C117.89 162 29.78 162 -61 162 Z " fill="#FEFEFE" transform="translate(222,225)"/>
<path d="M0 0 C1.21623047 0.98806641 1.21623047 0.98806641 2.45703125 1.99609375 C3.25753906 2.64449219 4.05804688 3.29289062 4.8828125 3.9609375 C9.62456911 7.98545362 13.43105567 12.24815629 17.046875 17.30859375 C17.51222656 17.86546875 17.97757813 18.42234375 18.45703125 18.99609375 C19.11703125 18.99609375 19.77703125 18.99609375 20.45703125 18.99609375 C20.82828125 19.94484375 21.19953125 20.89359375 21.58203125 21.87109375 C22.89206152 24.97314656 24.50084682 27.67380435 26.33203125 30.49609375 C34.37937579 43.64809714 36.84796508 59.12520909 36.76953125 74.30859375 C36.76606689 75.40510254 36.76260254 76.50161133 36.7590332 77.63134766 C36.64942533 85.81257585 35.75777448 93.11967547 33.45703125 100.99609375 C33.17085937 102.07890625 32.8846875 103.16171875 32.58984375 104.27734375 C31.90535512 106.85884371 31.19553978 109.42964566 30.45703125 111.99609375 C29.79703125 111.99609375 29.13703125 111.99609375 28.45703125 111.99609375 C28.33521484 113.02669922 28.33521484 113.02669922 28.2109375 114.078125 C27.26391068 117.74356041 25.46552985 120.56854154 23.39453125 123.68359375 C22.98895996 124.29936279 22.58338867 124.91513184 22.16552734 125.54956055 C14.88256045 136.46832773 6.91989892 145.21048765 -4.16796875 152.43359375 C-6.6424137 153.77713051 -6.6424137 153.77713051 -7.54296875 155.99609375 C-9.24194336 156.90991211 -9.24194336 156.90991211 -11.4453125 157.8359375 C-12.24912354 158.1755249 -13.05293457 158.5151123 -13.88110352 158.86499023 C-14.73889404 159.21762939 -15.59668457 159.57026855 -16.48046875 159.93359375 C-17.34406006 160.29332275 -18.20765137 160.65305176 -19.09741211 161.02368164 C-24.2680625 163.14887978 -29.41776593 165.08764801 -34.828125 166.5234375 C-36.63708296 166.9625378 -36.63708296 166.9625378 -38.54296875 167.99609375 C-42.86277942 168.51141726 -47.2006137 168.74754144 -51.54296875 168.99609375 C-52.41308594 169.05152344 -53.28320312 169.10695312 -54.1796875 169.1640625 C-73.70498407 169.8077536 -95.29869826 164.47913788 -110.54296875 151.99609375 C-111.97727991 150.92929292 -113.41466097 149.86660389 -114.85546875 148.80859375 C-116.09056649 147.87892148 -117.31945553 146.94096006 -118.54296875 145.99609375 C-119.35636719 145.37863281 -120.16976562 144.76117188 -121.0078125 144.125 C-133.7629305 133.41384544 -146.68093771 113.57428686 -148.29296875 96.62109375 C-148.41671875 94.82671875 -148.41671875 94.82671875 -148.54296875 92.99609375 C-149.20296875 92.66609375 -149.86296875 92.33609375 -150.54296875 91.99609375 C-150.61848704 87.98006994 -150.67219773 83.96433448 -150.70776367 79.94775391 C-150.72984042 77.92856263 -150.76800532 75.90956733 -150.80664062 73.890625 C-150.86517732 65.96865911 -150.16986631 58.78866152 -148.2902832 51.08642578 C-147.56039633 48.06816113 -147.01833271 45.06364534 -146.54296875 41.99609375 C-145.88296875 41.99609375 -145.22296875 41.99609375 -144.54296875 41.99609375 C-144.01703125 40.13984375 -144.01703125 40.13984375 -143.48046875 38.24609375 C-137.5775515 20.83656822 -122.84259609 3.82116916 -106.77734375 -5.1875 C-103.56911584 -6.79756402 -103.56911584 -6.79756402 -101.54296875 -9.00390625 C-68.12592278 -25.25955914 -29.78622067 -22.90904229 0 0 Z " fill="#FEFEFE" transform="translate(351.54296875,48.00390625)"/>
<path d="M0 0 C8.19891592 16.39783183 0.34585039 36.66992912 0 55 C-170.28 54.67 -340.56 54.34 -516 54 C-516 36.51 -516 19.02 -516 1 C-468.44792192 0.90457928 -420.89584379 0.80918199 -373.34376526 0.71398926 C-372.63955761 0.71257952 -371.93534995 0.71116978 -371.20980268 0.70971733 C-355.90408931 0.67907738 -340.59837592 0.64844412 -325.29266253 0.61781773 C-317.78633556 0.6027977 -310.2800086 0.58777619 -302.77368164 0.57275391 C-302.02672684 0.57125906 -301.27977203 0.56976422 -300.51018224 0.56822408 C-276.31562225 0.51980405 -252.12106245 0.47128669 -227.92650276 0.42271865 C-203.05564824 0.37279354 -178.18479352 0.32296703 -153.31393856 0.2732639 C-149.79807373 0.26623758 -146.2822089 0.25921013 -142.76634407 0.25218201 C-142.07439702 0.25079886 -141.38244998 0.24941571 -140.66953484 0.24799064 C-129.5479735 0.22575659 -118.42641237 0.20341914 -107.30485132 0.18104266 C-96.11371952 0.15852842 -84.9225875 0.1361264 -73.73145526 0.11383021 C-67.67202453 0.1017547 -61.6125939 0.08963082 -55.55316353 0.07737541 C-49.99925969 0.06614353 -44.44535558 0.05505144 -38.89145125 0.0440678 C-36.88850573 0.0400825 -34.88556032 0.0360471 -32.88261502 0.03195482 C-21.92172318 0.00959061 -10.96091707 -0.00573881 0 0 Z " fill="#FEFEFE" transform="translate(558,517)"/>
<path d="M0 0 C1.41613207 2.38224884 2.26506623 4.23427192 3.125 6.8125 C3.37161377 7.48812988 3.61822754 8.16375977 3.87231445 8.85986328 C4.60835738 10.8983206 5.30830236 12.94612791 6 15 C6.57427734 16.65708984 6.57427734 16.65708984 7.16015625 18.34765625 C8.13597498 21.22316771 9.07530885 24.10770121 10 27 C10.45541871 28.396787 10.91361359 29.79267287 11.375 31.1875 C11.60445313 31.88746094 11.83390625 32.58742188 12.0703125 33.30859375 C12.86459438 35.60800643 13.69999368 37.88282709 14.5546875 40.16015625 C14.8326416 40.91337158 15.1105957 41.66658691 15.39697266 42.44262695 C15.95672182 43.95670518 16.52640454 45.46715561 17.10693359 46.97338867 C17.36555176 47.67826416 17.62416992 48.38313965 17.890625 49.109375 C18.24688965 50.05248535 18.24688965 50.05248535 18.61035156 51.01464844 C19.5736691 55.92298067 17.20640902 59.90176032 14.98046875 64.1484375 C14.68062576 64.72405426 14.38078278 65.29967102 14.07185364 65.89273071 C13.1162559 67.72328712 12.15188701 69.54906175 11.1875 71.375 C10.55088489 72.59346415 9.91481209 73.81221181 9.27929688 75.03125 C6.29028496 80.74902994 3.26045986 86.43175872 0 92 C-2.625 92.5 -2.625 92.5 -6 92 C-11.66687599 86.48971651 -15.11547647 78.58473948 -18.75 71.6875 C-19.88946223 69.54495412 -21.03003628 67.40299906 -22.171875 65.26171875 C-22.6678418 64.32287842 -23.16380859 63.38403809 -23.67480469 62.41674805 C-25.03411092 59.85531104 -25.03411092 59.85531104 -27 57 C-26.57732093 50.44979128 -23.71742269 43.79582956 -21.59375 37.63671875 C-21.26838257 36.682314 -20.94301514 35.72790924 -20.60778809 34.74458313 C-19.92424495 32.74292023 -19.2383797 30.74204892 -18.55029297 28.74194336 C-17.49771263 25.68084792 -16.45339215 22.61702545 -15.41015625 19.55273438 C-14.74267114 17.601397 -14.07471877 15.65021938 -13.40625 13.69921875 C-12.93898499 12.32886726 -12.93898499 12.32886726 -12.46228027 10.93083191 C-12.16857544 10.07927017 -11.87487061 9.22770844 -11.57226562 8.3503418 C-11.31626587 7.60471481 -11.06026611 6.85908783 -10.79650879 6.09086609 C-8.48922044 0.03414577 -6.81077777 -2.19227325 0 0 Z " fill="#FEFEFE" transform="translate(299,240)"/>
<path d="M0 0 C0.33 0.66 0.66 1.32 1 2 C0.34 1.67 -0.32 1.34 -1 1 C-0.67 0.67 -0.34 0.34 0 0 Z " fill="#F7F7F7" transform="translate(421,254)"/>
<path d="" fill="#FBFBFB" transform="translate(0,0)"/>
<path d="M0 0 C2 1 2 1 2 1 Z " fill="#F8F8F8" transform="translate(106,339)"/>
<path d="" fill="#F2F2F2" transform="translate(0,0)"/>
<path d="" fill="#F1F1F1" transform="translate(0,0)"/>
<path d="" fill="#F6F6F6" transform="translate(0,0)"/>
<path d="M0 0 C2 1 2 1 2 1 Z " fill="#F6F6F6" transform="translate(389,99)"/>
<path d="" fill="#F2F2F2" transform="translate(0,0)"/>
<path d="M0 0 C2 1 2 1 2 1 Z " fill="#FCFCFC" transform="translate(357,52)"/>
<path d="" fill="#E6E6E6" transform="translate(0,0)"/>
<path d="" fill="#E6E6E6" transform="translate(0,0)"/>
<path d="" fill="#FAFAFA" transform="translate(0,0)"/>
<path d="" fill="#FAFAFA" transform="translate(0,0)"/>
<path d="" fill="#FAFAFA" transform="translate(0,0)"/>
<path d="" fill="#FAFAFA" transform="translate(0,0)"/>
<path d="" fill="#E7E7E7" transform="translate(0,0)"/>
<path d="" fill="#E7E7E7" transform="translate(0,0)"/>
<path d="" fill="#FDFDFD" transform="translate(0,0)"/>
<path d="" fill="#FDFDFD" transform="translate(0,0)"/>
<path d="" fill="#F8F8F8" transform="translate(0,0)"/>
<path d="" fill="#FDFDFD" transform="translate(0,0)"/>
<path d="" fill="#E8E8E8" transform="translate(0,0)"/>
<path d="" fill="#FDFDFD" transform="translate(0,0)"/>
<path d="" fill="#FDFDFD" transform="translate(0,0)"/>
<path d="" fill="#F9F9F9" transform="translate(0,0)"/>
<path d="" fill="#FBFBFB" transform="translate(0,0)"/>
<path d="" fill="#F3F3F3" transform="translate(0,0)"/>
<path d="" fill="#FBFBFB" transform="translate(0,0)"/>
<path d="" fill="#F1F1F1" transform="translate(0,0)"/>
<path d="" fill="#F8F8F8" transform="translate(0,0)"/>
<path d="" fill="#F1F1F1" transform="translate(0,0)"/>
<path d="" fill="#F2F2F2" transform="translate(0,0)"/>
<path d="" fill="#E7E7E7" transform="translate(0,0)"/>
<path d="" fill="#F0F0F0" transform="translate(0,0)"/>
<path d="" fill="#FDFDFD" transform="translate(0,0)"/>
<path d="" fill="#E8E8E8" transform="translate(0,0)"/>
<path d="" fill="#E7E7E7" transform="translate(0,0)"/>
<path d="" fill="#FAFAFA" transform="translate(0,0)"/>
<path d="" fill="#F5F5F5" transform="translate(0,0)"/>
<path d="" fill="#F8F8F8" transform="translate(0,0)"/>
<path d="" fill="#E8E8E8" transform="translate(0,0)"/>
<path d="" fill="#E8E8E8" transform="translate(0,0)"/>
<path d="" fill="#FAFAFA" transform="translate(0,0)"/>
<path d="" fill="#FCFCFC" transform="translate(0,0)"/>
<path d="" fill="#E8E8E8" transform="translate(0,0)"/>
<path d="" fill="#E8E8E8" transform="translate(0,0)"/>
<path d="" fill="#F2F2F2" transform="translate(0,0)"/>
<path d="" fill="#F1F1F1" transform="translate(0,0)"/>
<path d="" fill="#FBFBFB" transform="translate(0,0)"/>
<path d="" fill="#FDFDFD" transform="translate(0,0)"/>
<path d="" fill="#E8E8E8" transform="translate(0,0)"/>
<path d="" fill="#E8E8E8" transform="translate(0,0)"/>
<path d="" fill="#F0F0F0" transform="translate(0,0)"/>
<path d="" fill="#F3F3F3" transform="translate(0,0)"/>
<path d="" fill="#F4F4F4" transform="translate(0,0)"/>
<path d="" fill="#F3F3F3" transform="translate(0,0)"/>
<path d="" fill="#EFEFEF" transform="translate(0,0)"/>
<path d="" fill="#FDFDFD" transform="translate(0,0)"/>
<path d="" fill="#F9F9F9" transform="translate(0,0)"/>
<path d="" fill="#F6F6F6" transform="translate(0,0)"/>
<path d="" fill="#FBFBFB" transform="translate(0,0)"/>
<path d="" fill="#EFEFEF" transform="translate(0,0)"/>
<path d="" fill="#F3F3F3" transform="translate(0,0)"/>
<path d="" fill="#E9E9E9" transform="translate(0,0)"/>
<path d="" fill="#E8E8E8" transform="translate(0,0)"/>
<path d="" fill="#F4F4F4" transform="translate(0,0)"/>
<path d="" fill="#EFEFEF" transform="translate(0,0)"/>
<path d="" fill="#FAFAFA" transform="translate(0,0)"/>
<path d="" fill="#F2F2F2" transform="translate(0,0)"/>
<path d="" fill="#F2F2F2" transform="translate(0,0)"/>
<path d="" fill="#F2F2F2" transform="translate(0,0)"/>
<path d="" fill="#FDFDFD" transform="translate(0,0)"/>
<path d="" fill="#FAFAFA" transform="translate(0,0)"/>
<path d="" fill="#FBFBFB" transform="translate(0,0)"/>
<path d="" fill="#E8E8E8" transform="translate(0,0)"/>
<path d="" fill="#FAFAFA" transform="translate(0,0)"/>
<path d="" fill="#FCFCFC" transform="translate(0,0)"/>
<path d="" fill="#FDFDFD" transform="translate(0,0)"/>
<path d="" fill="#FAFAFA" transform="translate(0,0)"/>
<path d="" fill="#FAFAFA" transform="translate(0,0)"/>
<path d="" fill="#EDEDED" transform="translate(0,0)"/>
<path d="" fill="#FAFAFA" transform="translate(0,0)"/>
<path d="" fill="#E8E8E8" transform="translate(0,0)"/>
<path d="" fill="#FDFDFD" transform="translate(0,0)"/>
<path d="" fill="#F8F8F8" transform="translate(0,0)"/>
<path d="" fill="#FDFDFD" transform="translate(0,0)"/>
<path d="" fill="#F2F2F2" transform="translate(0,0)"/>
<path d="" fill="#F2F2F2" transform="translate(0,0)"/>
<path d="" fill="#E7E7E7" transform="translate(0,0)"/>
<path d="" fill="#F1F1F1" transform="translate(0,0)"/>
<path d="" fill="#ECECEC" transform="translate(0,0)"/>
<path d="" fill="#FBFBFB" transform="translate(0,0)"/>
<path d="" fill="#F5F5F5" transform="translate(0,0)"/>
<path d="" fill="#F2F2F2" transform="translate(0,0)"/>
<path d="" fill="#F1F1F1" transform="translate(0,0)"/>
<path d="" fill="#F7F7F7" transform="translate(0,0)"/>
<path d="" fill="#F7F7F7" transform="translate(0,0)"/>
<path d="" fill="#F7F7F7" transform="translate(0,0)"/>
<path d="" fill="#FDFDFD" transform="translate(0,0)"/>
<path d="" fill="#F8F8F8" transform="translate(0,0)"/>
<path d="" fill="#F7F7F7" transform="translate(0,0)"/>
<path d="" fill="#FCFCFC" transform="translate(0,0)"/>
<path d="" fill="#E8E8E8" transform="translate(0,0)"/>
<path d="" fill="#F9F9F9" transform="translate(0,0)"/>
<path d="" fill="#E8E8E8" transform="translate(0,0)"/>
<path d="" fill="#FCFCFC" transform="translate(0,0)"/>
<path d="" fill="#F3F3F3" transform="translate(0,0)"/>
<path d="" fill="#FAFAFA" transform="translate(0,0)"/>
<path d="" fill="#E8E8E8" transform="translate(0,0)"/>
<path d="" fill="#F9F9F9" transform="translate(0,0)"/>
<path d="" fill="#FDFDFD" transform="translate(0,0)"/>
<path d="" fill="#F5F5F5" transform="translate(0,0)"/>
<path d="" fill="#F9F9F9" transform="translate(0,0)"/>
<path d="" fill="#E7E7E7" transform="translate(0,0)"/>
<path d="" fill="#E8E8E8" transform="translate(0,0)"/>
<path d="" fill="#FBFBFB" transform="translate(0,0)"/>
<path d="" fill="#FDFDFD" transform="translate(0,0)"/>
<path d="" fill="#FCFCFC" transform="translate(0,0)"/>
<path d="" fill="#F8F8F8" transform="translate(0,0)"/>
<path d="" fill="#E8E8E8" transform="translate(0,0)"/>
<path d="" fill="#FCFCFC" transform="translate(0,0)"/>
<path d="" fill="#F2F2F2" transform="translate(0,0)"/>
<path d="" fill="#FBFBFB" transform="translate(0,0)"/>
<path d="" fill="#E8E8E8" transform="translate(0,0)"/>
<path d="" fill="#E7E7E7" transform="translate(0,0)"/>
<path d="" fill="#E7E7E7" transform="translate(0,0)"/>
<path d="" fill="#FBFBFB" transform="translate(0,0)"/>
<path d="" fill="#FDFDFD" transform="translate(0,0)"/>
<path d="" fill="#F6F6F6" transform="translate(0,0)"/>
<path d="" fill="#F8F8F8" transform="translate(0,0)"/>
<path d="" fill="#F2F2F2" transform="translate(0,0)"/>
<path d="" fill="#E7E7E7" transform="translate(0,0)"/>
<path d="" fill="#E7E7E7" transform="translate(0,0)"/>
<path d="" fill="#F5F5F5" transform="translate(0,0)"/>
<path d="" fill="#FAFAFA" transform="translate(0,0)"/>
<path d="" fill="#F7F7F7" transform="translate(0,0)"/>
<path d="" fill="#E7E7E7" transform="translate(0,0)"/>
<path d="" fill="#E7E7E7" transform="translate(0,0)"/>
<path d="" fill="#F2F2F2" transform="translate(0,0)"/>
<path d="" fill="#FBFBFB" transform="translate(0,0)"/>
<path d="" fill="#E8E8E8" transform="translate(0,0)"/>
<path d="" fill="#E7E7E7" transform="translate(0,0)"/>
<path d="" fill="#F5F5F5" transform="translate(0,0)"/>
<path d="" fill="#F8F8F8" transform="translate(0,0)"/>
<path d="" fill="#F2F2F2" transform="translate(0,0)"/>
<path d="" fill="#F1F1F1" transform="translate(0,0)"/>
<path d="" fill="#F1F1F1" transform="translate(0,0)"/>
<path d="" fill="#E7E7E7" transform="translate(0,0)"/>
<path d="" fill="#E8E8E8" transform="translate(0,0)"/>
<path d="" fill="#F1F1F1" transform="translate(0,0)"/>
<path d="" fill="#F1F1F1" transform="translate(0,0)"/>
<path d="" fill="#FBFBFB" transform="translate(0,0)"/>
<path d="" fill="#E8E8E8" transform="translate(0,0)"/>
<path d="" fill="#FBFBFB" transform="translate(0,0)"/>
<path d="" fill="#F1F1F1" transform="translate(0,0)"/>
<path d="" fill="#F8F8F8" transform="translate(0,0)"/>
<path d="" fill="#E8E8E8" transform="translate(0,0)"/>
<path d="" fill="#F5F5F5" transform="translate(0,0)"/>
<path d="" fill="#F2F2F2" transform="translate(0,0)"/>
<path d="" fill="#F1F1F1" transform="translate(0,0)"/>
<path d="" fill="#F8F8F8" transform="translate(0,0)"/>
<path d="" fill="#F4F4F4" transform="translate(0,0)"/>
<path d="" fill="#F9F9F9" transform="translate(0,0)"/>
<path d="" fill="#F8F8F8" transform="translate(0,0)"/>
<path d="" fill="#F5F5F5" transform="translate(0,0)"/>
<path d="" fill="#FEFEFE" transform="translate(0,0)"/>
<path d="" fill="#F1F1F1" transform="translate(0,0)"/>
<path d="" fill="#F6F6F6" transform="translate(0,0)"/>
<path d="" fill="#F4F4F4" transform="translate(0,0)"/>
<path d="" fill="#FCFCFC" transform="translate(0,0)"/>
<path d="" fill="#E7E7E7" transform="translate(0,0)"/>
<path d="" fill="#F9F9F9" transform="translate(0,0)"/>
<path d="" fill="#EEEEEE" transform="translate(0,0)"/>
<path d="" fill="#FCFCFC" transform="translate(0,0)"/>
<path d="" fill="#F8F8F8" transform="translate(0,0)"/>
<path d="" fill="#FCFCFC" transform="translate(0,0)"/>
<path d="" fill="#FDFDFD" transform="translate(0,0)"/>
<path d="" fill="#FBFBFB" transform="translate(0,0)"/>
<path d="" fill="#FDFDFD" transform="translate(0,0)"/>
<path d="" fill="#F9F9F9" transform="translate(0,0)"/>
<path d="" fill="#FDFDFD" transform="translate(0,0)"/>
<path d="" fill="#E7E7E7" transform="translate(0,0)"/>
<path d="" fill="#E8E8E8" transform="translate(0,0)"/>
<path d="" fill="#E6E6E6" transform="translate(0,0)"/>
<path d="" fill="#FCFCFC" transform="translate(0,0)"/>
<path d="" fill="#F9F9F9" transform="translate(0,0)"/>
<path d="" fill="#F2F2F2" transform="translate(0,0)"/>
<path d="" fill="#FCFCFC" transform="translate(0,0)"/>
<path d="" fill="#F8F8F8" transform="translate(0,0)"/>
<path d="" fill="#FAFAFA" transform="translate(0,0)"/>
<path d="" fill="#FAFAFA" transform="translate(0,0)"/>
<path d="" fill="#F3F3F3" transform="translate(0,0)"/>
<path d="" fill="#E8E8E8" transform="translate(0,0)"/>
<path d="" fill="#FAFAFA" transform="translate(0,0)"/>
<path d="" fill="#FCFCFC" transform="translate(0,0)"/>
<path d="" fill="#FAFAFA" transform="translate(0,0)"/>
<path d="" fill="#FBFBFB" transform="translate(0,0)"/>
<path d="" fill="#E7E7E7" transform="translate(0,0)"/>
<path d="" fill="#E7E7E7" transform="translate(0,0)"/>
<path d="" fill="#F8F8F8" transform="translate(0,0)"/>
<path d="" fill="#E7E7E7" transform="translate(0,0)"/>
<path d="" fill="#E8E8E8" transform="translate(0,0)"/>
<path d="" fill="#E7E7E7" transform="translate(0,0)"/>
<path d="" fill="#E7E7E7" transform="translate(0,0)"/>
<path d="" fill="#E7E7E7" transform="translate(0,0)"/>
<path d="" fill="#E7E7E7" transform="translate(0,0)"/>
<path d="" fill="#F1F1F1" transform="translate(0,0)"/>
<path d="" fill="#FCFCFC" transform="translate(0,0)"/>
<path d="" fill="#FBFBFB" transform="translate(0,0)"/>
<path d="" fill="#FAFAFA" transform="translate(0,0)"/>
<path d="" fill="#E7E7E7" transform="translate(0,0)"/>
<path d="" fill="#E7E7E7" transform="translate(0,0)"/>
<path d="" fill="#E7E7E7" transform="translate(0,0)"/>
<path d="" fill="#E7E7E7" transform="translate(0,0)"/>
<path d="" fill="#F9F9F9" transform="translate(0,0)"/>
<path d="" fill="#FBFBFB" transform="translate(0,0)"/>
<path d="" fill="#FCFCFC" transform="translate(0,0)"/>
<path d="" fill="#FCFCFC" transform="translate(0,0)"/>
<path d="" fill="#F6F6F6" transform="translate(0,0)"/>
<path d="" fill="#FCFCFC" transform="translate(0,0)"/>
<path d="" fill="#E8E8E8" transform="translate(0,0)"/>
<path d="" fill="#F5F5F5" transform="translate(0,0)"/>
<path d="" fill="#F9F9F9" transform="translate(0,0)"/>
<path d="" fill="#FCFCFC" transform="translate(0,0)"/>
<path d="" fill="#FCFCFC" transform="translate(0,0)"/>
<path d="" fill="#FAFAFA" transform="translate(0,0)"/>
<path d="" fill="#F9F9F9" transform="translate(0,0)"/>
<path d="" fill="#F2F2F2" transform="translate(0,0)"/>
<path d="" fill="#F9F9F9" transform="translate(0,0)"/>
<path d="" fill="#FBFBFB" transform="translate(0,0)"/>
<path d="" fill="#F9F9F9" transform="translate(0,0)"/>
<path d="" fill="#F3F3F3" transform="translate(0,0)"/>
<path d="" fill="#FDFDFD" transform="translate(0,0)"/>
<path d="" fill="#F9F9F9" transform="translate(0,0)"/>
<path d="" fill="#F6F6F6" transform="translate(0,0)"/>
<path d="" fill="#E8E8E8" transform="translate(0,0)"/>
<path d="" fill="#E8E8E8" transform="translate(0,0)"/>
<path d="" fill="#FCFCFC" transform="translate(0,0)"/>
<path d="" fill="#E8E8E8" transform="translate(0,0)"/>
<path d="" fill="#F2F2F2" transform="translate(0,0)"/>
<path d="" fill="#F2F2F2" transform="translate(0,0)"/>
<path d="" fill="#E8E8E8" transform="translate(0,0)"/>
<path d="" fill="#EEEEEE" transform="translate(0,0)"/>
<path d="" fill="#E8E8E8" transform="translate(0,0)"/>
<path d="" fill="#F2F2F2" transform="translate(0,0)"/>
<path d="" fill="#FAFAFA" transform="translate(0,0)"/>
<path d="" fill="#E8E8E8" transform="translate(0,0)"/>
<path d="" fill="#FCFCFC" transform="translate(0,0)"/>
<path d="" fill="#FDFDFD" transform="translate(0,0)"/>
<path d="" fill="#FBFBFB" transform="translate(0,0)"/>
<path d="" fill="#FEFEFE" transform="translate(0,0)"/>
<path d="" fill="#E8E8E8" transform="translate(0,0)"/>
<path d="" fill="#FDFDFD" transform="translate(0,0)"/>
<path d="" fill="#E8E8E8" transform="translate(0,0)"/>
<path d="" fill="#E8E8E8" transform="translate(0,0)"/>
<path d="" fill="#F9F9F9" transform="translate(0,0)"/>
<path d="" fill="#FBFBFB" transform="translate(0,0)"/>
<path d="" fill="#FAFAFA" transform="translate(0,0)"/>
<path d="" fill="#F2F2F2" transform="translate(0,0)"/>
<path d="" fill="#FAFAFA" transform="translate(0,0)"/>
<path d="" fill="#F6F6F6" transform="translate(0,0)"/>
<path d="" fill="#F6F6F6" transform="translate(0,0)"/>
<path d="" fill="#F7F7F7" transform="translate(0,0)"/>
<path d="" fill="#F9F9F9" transform="translate(0,0)"/>
<path d="" fill="#FCFCFC" transform="translate(0,0)"/>
<path d="" fill="#FCFCFC" transform="translate(0,0)"/>
<path d="" fill="#E8E8E8" transform="translate(0,0)"/>
<path d="" fill="#E8E8E8" transform="translate(0,0)"/>
<path d="" fill="#E8E8E8" transform="translate(0,0)"/>
</svg>
