<svg width="42" height="28" viewBox="0 0 42 28" fill="none" xmlns="http://www.w3.org/2000/svg">
<g clip-path="url(#clip0_16_76)">
<mask id="mask0_16_76" style="mask-type:luminance" maskUnits="userSpaceOnUse" x="0" y="0" width="42" height="28">
<path d="M42 0H0V28H42V0Z" fill="white"/>
</mask>
<g mask="url(#mask0_16_76)">
<path d="M42 0H0V28H42V0Z" fill="white"/>
<path d="M42 0H0V9.33548H42V0Z" fill="#DC6803"/>
<path d="M42 18.67H0V27.9991H42V18.67Z" fill="#127808"/>
<mask id="mask1_16_76" style="mask-type:luminance" maskUnits="userSpaceOnUse" x="0" y="0" width="42" height="28">
<path d="M42 0H0V28H42V0Z" fill="white"/>
</mask>
<g mask="url(#mask1_16_76)">
<path d="M21.005 13.3746C21.3083 13.3746 21.5527 13.6595 21.5527 14.0005C21.5527 14.3414 21.3083 14.6318 21.005 14.6318C20.7018 14.6318 20.4528 14.3469 20.4528 14.0005C20.4528 13.654 20.6972 13.3746 21.005 13.3746Z" fill="white"/>
</g>
</g>
<path d="M21.0023 10.3262C18.9733 10.3262 17.3265 11.9685 17.3265 13.9977C17.3265 16.0269 18.9742 17.6738 21.0023 17.6738C23.0304 17.6738 24.678 16.026 24.678 13.9977C24.6753 11.9685 23.0304 10.3262 21.0023 10.3262ZM21.0004 10.6828L20.9076 12.5309L21.0078 13.5823L21.1006 12.5309L21.0078 10.6828C21.1052 10.6828 21.1989 10.6874 21.2917 10.6975C21.2917 10.7021 21.2872 10.7021 21.2872 10.7076C21.2872 10.7958 21.3552 10.8693 21.4388 10.8693C21.5169 10.8693 21.5803 10.8059 21.5876 10.7324C21.6805 10.7517 21.7687 10.7664 21.8587 10.7958L21.2917 12.5557L21.1107 13.597L21.4774 12.5999L21.8688 10.7958C21.9571 10.8252 22.0453 10.8491 22.1326 10.884C22.128 10.8987 22.1206 10.918 22.1206 10.9373C22.1206 11.0201 22.1886 11.089 22.275 11.089C22.3338 11.089 22.3926 11.0504 22.4147 10.9962C22.4974 11.0357 22.5783 11.0789 22.6619 11.1285L21.6575 12.6734L21.2127 13.6411L21.8266 12.7754L22.6702 11.1331C22.7464 11.1772 22.8245 11.2259 22.9026 11.2746C22.8806 11.304 22.8686 11.3334 22.8686 11.372C22.8686 11.4548 22.9366 11.5237 23.023 11.5237C23.0717 11.5237 23.1158 11.5044 23.1425 11.4603C23.216 11.5237 23.284 11.5871 23.3474 11.6514L21.9791 12.8884L21.3019 13.7045L22.116 13.03L23.3548 11.656C23.4182 11.724 23.4816 11.7884 23.5404 11.861C23.5036 11.8904 23.4871 11.9345 23.4871 11.9786C23.4871 12.0613 23.5551 12.1302 23.636 12.1302C23.6727 12.1302 23.6994 12.1201 23.726 12.1008C23.7821 12.1789 23.8308 12.2571 23.8749 12.3352L22.2327 13.1761L21.3671 13.7918L22.3274 13.3516L23.8795 12.3398C23.9309 12.428 23.9723 12.5208 24.0136 12.5989C23.9622 12.6238 23.9208 12.6817 23.9208 12.746C23.9208 12.8287 23.9888 12.8976 24.0697 12.8976C24.0945 12.8976 24.111 12.893 24.1285 12.8829C24.1579 12.9711 24.1846 13.0539 24.2066 13.1421L22.4009 13.5235L21.4112 13.8902L22.4524 13.7146L24.2121 13.1522C24.2342 13.2303 24.2562 13.3277 24.2737 13.416C24.1974 13.4261 24.1414 13.484 24.1414 13.5676C24.1414 13.6512 24.2121 13.7192 24.2958 13.7192H24.3105C24.3206 13.8075 24.3206 13.9049 24.3206 13.9931L22.4772 13.9049L21.4213 13.9977L22.4772 14.1006L24.3206 14.0032C24.3206 14.1006 24.3206 14.1935 24.3105 14.2817H24.2958C24.2131 14.2817 24.1414 14.3552 24.1414 14.4333C24.1414 14.5114 24.1974 14.5703 24.2709 14.585C24.2535 14.6778 24.2342 14.766 24.2121 14.8542L23.5845 14.6539L22.4533 14.2872L21.4121 14.1117L22.4018 14.4784L24.2075 14.8643C24.1855 14.9526 24.1588 15.0454 24.1248 15.1235C24.1202 15.1235 24.1101 15.1189 24.1055 15.1189H24.0715C23.9861 15.1189 23.9172 15.1823 23.9172 15.2706C23.9172 15.2954 23.9217 15.3092 23.9319 15.3294C23.9392 15.3542 23.9539 15.3735 23.9732 15.3882C23.9778 15.3882 23.9806 15.3928 23.9852 15.3928C23.9897 15.3974 23.9953 15.4029 23.9999 15.4029C23.9999 15.4029 24.0072 15.4075 24.01 15.413C23.9714 15.4957 23.9273 15.5793 23.8804 15.6575L22.3311 14.6548H22.3283L21.368 14.2146H21.3726L21.8762 14.5666L22.2327 14.8211L23.8749 15.6621C23.8262 15.7448 23.7775 15.8284 23.7233 15.9019C23.6984 15.8872 23.6672 15.8771 23.635 15.8771C23.5496 15.8771 23.4834 15.9405 23.4834 16.0232C23.4834 16.0719 23.5027 16.1161 23.5395 16.1409C23.4788 16.2089 23.4172 16.2778 23.3538 16.3412L22.1151 14.9728L21.3037 14.2982L21.9782 15.1143L23.3465 16.3513C23.2831 16.4193 23.2197 16.4736 23.1489 16.5324C23.1195 16.5076 23.0883 16.4984 23.0534 16.4984C22.9706 16.4984 22.9017 16.5719 22.9017 16.65C22.9017 16.6794 22.9063 16.6987 22.9137 16.718C22.8328 16.7667 22.7501 16.821 22.6692 16.8743L21.8257 15.232L21.2118 14.3616L21.6538 15.3248L22.6582 16.8798C22.5773 16.9239 22.4965 16.968 22.4138 17.0066C22.3917 16.9478 22.3375 16.9138 22.2768 16.9138C22.1914 16.9138 22.1234 16.9873 22.1234 17.0654C22.1234 17.0847 22.128 17.104 22.1335 17.1242C22.0453 17.1536 21.9598 17.183 21.8698 17.2023L21.4783 15.3937L21.1116 14.4113V14.4067L21.2927 15.4479L21.8597 17.2079C21.7696 17.2327 21.6786 17.2566 21.5886 17.2667C21.5766 17.1987 21.5132 17.1399 21.4397 17.1399C21.3515 17.1399 21.2881 17.2079 21.2881 17.2869V17.3062C21.1953 17.3163 21.1024 17.3209 21.0096 17.3209L21.1024 15.4773L21.005 14.4214L20.9095 15.4773L21.0023 17.3209C20.9049 17.3209 20.8139 17.3163 20.7183 17.3062V17.2869C20.7183 17.2088 20.6503 17.1399 20.5649 17.1399C20.4914 17.1399 20.4279 17.1987 20.416 17.2667C20.3259 17.252 20.2377 17.2327 20.1523 17.2079L20.7193 15.4479L20.8948 14.4113L20.5281 15.3937L20.1422 17.2023C20.0539 17.183 19.9666 17.1536 19.8757 17.1242C19.883 17.1049 19.8876 17.0856 19.8876 17.0654C19.8876 16.9873 19.8196 16.9138 19.7387 16.9138C19.6753 16.9138 19.6211 16.9524 19.5945 17.0066C19.5136 16.9671 19.4309 16.9239 19.35 16.8798L20.3544 15.3248L20.7946 14.3616L20.1835 15.2274L19.3427 16.8752C19.2618 16.8219 19.181 16.7722 19.1056 16.7189C19.1231 16.6996 19.135 16.6702 19.135 16.6362C19.135 16.548 19.067 16.48 18.9861 16.48C18.9347 16.48 18.8933 16.5048 18.8685 16.5388C18.795 16.4754 18.727 16.4212 18.6636 16.3532L20.0374 15.1162L20.7119 14.3001L19.8977 14.9746L18.6581 16.3431C18.5901 16.2796 18.5285 16.2061 18.4679 16.1427C18.5019 16.1133 18.5267 16.0692 18.5267 16.0205C18.5267 15.9378 18.4587 15.8734 18.375 15.8734C18.341 15.8734 18.3089 15.8835 18.285 15.8982C18.2308 15.8247 18.1821 15.7466 18.1361 15.6639L19.7838 14.8184L20.6421 14.2173L19.6818 14.6576L18.1324 15.6602C18.0856 15.5821 18.0497 15.504 18.0075 15.4158C18.0663 15.3965 18.1049 15.3422 18.1049 15.2788C18.1049 15.1906 18.0387 15.1226 17.9505 15.1226C17.9284 15.1226 17.9064 15.1272 17.8871 15.1373C17.8577 15.0546 17.8283 14.9618 17.8016 14.868L19.6101 14.482L20.6044 14.1153L19.5586 14.2909L17.7989 14.8579C17.7741 14.7697 17.7575 14.6824 17.7382 14.584C17.8145 14.5739 17.8705 14.516 17.8705 14.437C17.8705 14.3543 17.8025 14.2854 17.7189 14.2854H17.7015C17.6969 14.1971 17.6895 14.1043 17.6895 14.0069L19.5347 14.1043L20.5878 14.0014L19.5347 13.9086L17.6895 13.9968C17.6895 13.9086 17.6969 13.8111 17.7015 13.7229H17.7281C17.8108 13.7229 17.8797 13.6595 17.8797 13.5713C17.8797 13.4886 17.8191 13.4297 17.7382 13.4196C17.7575 13.3314 17.775 13.234 17.7989 13.1559L19.5586 13.7183L20.6044 13.8938L19.6101 13.5272L17.8016 13.1412C17.8283 13.0483 17.8577 12.9601 17.8871 12.8774C17.9018 12.882 17.9257 12.8875 17.9431 12.8875C18.0286 12.8875 18.0948 12.8195 18.0948 12.7359C18.0948 12.6725 18.0553 12.6182 18.0047 12.5989C18.0442 12.5107 18.0856 12.428 18.1315 12.3444L19.6809 13.3562L20.6467 13.7964L19.7838 13.1807L18.1361 12.3398C18.183 12.2617 18.2335 12.1835 18.2877 12.0999C18.3098 12.1247 18.3466 12.1339 18.3778 12.1339C18.4587 12.1339 18.5294 12.0659 18.5294 11.9823C18.5294 11.9382 18.5046 11.894 18.4734 11.86C18.5294 11.792 18.591 11.7277 18.6572 11.6597L19.8959 13.0336L20.7119 13.7082L20.0374 12.8921L18.6636 11.6551C18.7316 11.5917 18.7978 11.5283 18.8685 11.4695C18.8933 11.5035 18.9365 11.5283 18.9861 11.5283C19.0716 11.5283 19.1396 11.4603 19.1396 11.372C19.1396 11.338 19.1249 11.3086 19.1074 11.2792C19.1855 11.2351 19.2618 11.1818 19.3418 11.1377L20.1826 12.78L20.7937 13.6402L20.3535 12.6771L19.3491 11.1322C19.43 11.0835 19.5109 11.0394 19.5908 10.9998C19.6156 11.0587 19.6689 11.0973 19.7323 11.0973C19.8178 11.0973 19.8839 11.0292 19.8839 10.9511C19.8839 10.9263 19.8793 10.9024 19.8738 10.8877C19.9593 10.8537 20.0521 10.8289 20.1403 10.7995L20.5318 12.6035L20.8984 13.6007L20.7202 12.5594L20.1532 10.7995C20.2414 10.7701 20.3287 10.7554 20.4224 10.7361C20.4325 10.8096 20.496 10.8684 20.5713 10.8684C20.6568 10.8684 20.7257 10.8004 20.7257 10.7122V10.6975C20.8157 10.6874 20.9095 10.6874 21.0023 10.6874" fill="#16007E"/>
<path d="M21.006 13.575C21.2384 13.575 21.4287 13.7606 21.4287 13.9959C21.4287 14.2311 21.2384 14.426 21.006 14.426C20.7735 14.426 20.5759 14.2357 20.5759 13.9959C20.5759 13.756 20.7689 13.575 21.006 13.575Z" fill="#16007E"/>
</g>
<defs>
<clipPath id="clip0_16_76">
<rect width="42" height="28" fill="white"/>
</clipPath>
</defs>
</svg>
