<?xml version="1.0" encoding="UTF-8"?>
<svg xmlns="http://www.w3.org/2000/svg" viewBox="0 0 386 291.86"><defs><style>.cls-1{fill:#1e75bb;}.cls-2{fill:#27a8e0;}</style></defs><g id="Layer_2" data-name="Layer 2"><g id="Layer_1-2" data-name="Layer 1"><path class="cls-1" d="M31.51,192.79c0-12.73-3.83-22.45-11.5-29.24q-7-6.18-20-9.84V135.39c9.81-3.31,16.73-7,20.76-11,7.18-7,10.75-17.61,10.75-32V51.81A55.41,55.41,0,0,1,34.08,35.6q4.53-14.72,15.39-23.32A53.2,53.2,0,0,1,72.89,1.82Q81.08.16,96.31,0V24.23c-8.31,1.82-14,4.23-17,7.28q-6.92,7-6.92,24.36V91c0,11.28-1.49,20.27-4.54,26.93q-7.71,16.77-30.28,27.22c13.61,5.56,22.8,12,27.48,19.36S72.18,182,72.37,195V233.3c0,11.17,2.73,19.26,8.12,24.2q4.53,4.38,15.82,7.69v24.24l-10.72-.3c-14.39-.42-27-4.71-37.84-13s-16.24-20.2-16.24-36V192.79Z"/><path d="M264.58,79.52q20.18,21.35,20.2,62.69,0,43.6-19.75,66.5T214.2,231.57c-13.23,0-24.17-3.28-32.91-9.84-4.78-3.64-9.45-8.93-14-15.92v86.05H124.54v-230h41.35V86.21a69,69,0,0,1,14.94-17q14.47-11.05,34.44-11Q244.36,58.12,264.58,79.52Zm-33.14,31.05c-5.88-9.81-15.36-14.68-28.52-14.68q-23.73,0-32.58,22.25c-3.05,7.9-4.58,17.87-4.58,30q0,28.8,15.43,40.45a35.48,35.48,0,0,0,21.73,6.82q18.22,0,27.78-13.94c6.36-9.29,9.58-21.66,9.58-37.09Q240.24,125.25,231.44,110.57Z"/><path class="cls-2" d="M289.36,289.43V265.19c7.57-2.2,12.87-4.84,15.92-7.86,5.13-5,7.83-13,8-24V195q0-21.48,8.35-31.83c5.59-6.89,14.42-12.93,26.6-18.06-13.28-6.47-22.41-13.78-27.44-22S313.3,104.17,313.3,91V55.87c0-11.17-1.78-18.81-5.39-22.83s-9.78-7-18.55-8.77V0q15.15.15,23.39,1.82a54.83,54.83,0,0,1,23.68,10.46,41.07,41.07,0,0,1,14.13,19.39q3.94,11.51,4,20.14V92.38q0,21.65,9.85,31.8,6,6,21.63,11.21v18.32c-8.58,2.41-15.1,5.56-19.52,9.39q-12,10.28-12,29.69v47.39c0,15.33-5.32,27.26-15.95,35.67s-23.42,12.83-38.39,13.25Z"/></g></g></svg>