<?xml version="1.0" encoding="UTF-8"?>
<!-- Generator: Adobe Illustrator 24.2.3, SVG Export Plug-In . SVG Version: 6.00 Build 0)  -->
<svg version="1.1" id="Layer_1" xmlns="http://www.w3.org/2000/svg"
	xmlns:xlink="http://www.w3.org/1999/xlink" x="0px" y="0px" viewBox="0 0 7708 906.4"
	style="enable-background:new 0 0 7708 906.4;" xml:space="preserve">
<style type="text/css">
	.st0{fill:#1E75BB;}
	.st1{fill:#27A8E0;}
</style>
<path class="st0" d="M97,593.5c0-39.2-11.8-69.1-35.4-90C47.2,490.8,26.7,480.7,0,473.2v-56.4c30.2-10.2,51.5-21.6,63.9-34  C86,361.3,97,328.6,97,284.4V159.5c0-15.8,2.6-32.5,7.9-49.9c9.3-30.2,25.1-54.1,47.4-71.8c20.4-16.2,44.5-26.9,72.1-32.2  c16.8-3.4,40.8-5.3,72.1-5.6v74.6c-25.6,5.6-43.1,13-52.4,22.4c-14.2,14.3-21.3,39.3-21.3,75v108c0,34.7-4.6,62.4-14,82.9  c-15.8,34.4-46.9,62.4-93.2,83.8c41.9,17.1,70.2,36.9,84.6,59.6c14.5,22.7,22,54,22.6,94.1v117.8c0,34.4,8.4,59.3,25,74.5  c9.3,9,25.5,16.9,48.7,23.7V891l-33-0.9c-44.3-1.3-83.2-14.5-116.5-39.9s-50-62.2-50-110.7V593.5H97z"/>
<path d="M814.5,244.8c41.4,43.8,62.2,108.2,62.2,193c0,89.5-20.3,157.7-60.8,204.7c-40.5,46.9-92.7,70.4-156.5,70.4  c-40.7,0-74.4-10.1-101.3-30.3c-14.7-11.2-29.1-27.5-43.2-49v264.9H383.4V190.3h127.3v75.1c14.4-22.1,29.7-39.5,46-52.2  c29.7-22.7,65.1-34,106-34C722.4,179,773,201,814.5,244.8z M712.5,340.4c-18.1-30.2-47.3-45.2-87.8-45.2  c-48.7,0-82.1,22.8-100.3,68.5c-9.4,24.3-14.1,55-14.1,92.3c0,59.1,15.8,100.6,47.5,124.5c18.9,14,41.1,21,66.9,21  c37.4,0,65.9-14.3,85.5-42.9c19.6-28.6,29.5-66.7,29.5-114.2C739.6,405.2,730.5,370.5,712.5,340.4z"/>
<path class="st1" d="M890.8,891v-74.6c23.3-6.8,39.6-14.9,49-24.2c15.8-15.5,24.1-40.2,24.7-74V600.4c0-44.1,8.6-76.7,25.7-98  c17.2-21.2,44.4-39.8,81.9-55.6c-40.9-19.9-69-42.4-84.5-67.8c-15.4-25.3-23.1-58.3-23.1-98.9V172c0-34.4-5.5-57.9-16.6-70.3  c-11.1-12.4-30.1-21.4-57.1-27V0c31.1,0.3,55.1,2.2,72,5.6c27.7,5.3,52,16,72.9,32.2c20.9,16.2,35.4,36.1,43.5,59.7  c8.1,23.6,12.2,44.3,12.2,62v124.9c0,44.4,10.1,77.1,30.3,97.9c12.4,12.4,34.6,23.9,66.6,34.5v56.4c-26.4,7.4-46.5,17.1-60.1,28.9  c-24.6,21.1-36.8,51.6-36.8,91.4v145.9c0,47.2-16.4,83.9-49.1,109.8c-32.7,25.9-72.1,39.5-118.2,40.8L890.8,891z"/>
<path d="M1550,178.4c1.7,0.2,5.5,0.4,11.4,0.7v136.1c-8.4-0.9-15.8-1.5-22.4-1.8s-11.8-0.5-15.8-0.5c-53.4,0-89.4,17.4-107.7,52.2  c-10.2,19.6-15.4,49.7-15.4,90.4v242.9h-133.8V190.3h126.8v88.6c20.5-33.9,38.4-57.1,53.6-69.4c24.9-20.8,57.2-31.2,97-31.2  C1546.2,178.1,1548.4,178.2,1550,178.4z"/>
<path d="M2047.2,636.3c-42.9,52.9-108,79.4-195.3,79.4c-87.3,0-152.4-26.5-195.3-79.4s-64.4-116.7-64.4-191.2  c0-73.3,21.5-136.8,64.4-190.5s108-80.6,195.3-80.6c87.3,0,152.4,26.9,195.3,80.6c42.9,53.7,64.4,117.2,64.4,190.5  C2111.5,519.6,2090.1,583.3,2047.2,636.3z M1940.9,562.9c20.8-27.6,31.2-66.9,31.2-117.8s-10.4-90.1-31.2-117.5  c-20.8-27.5-50.6-41.2-89.5-41.2c-38.9,0-68.8,13.8-89.7,41.2c-21,27.5-31.5,66.6-31.5,117.5c0,50.9,10.5,90.2,31.5,117.8  c21,27.6,50.9,41.4,89.7,41.4C1890.3,604.3,1920.1,590.5,1940.9,562.9z"/>
<path d="M2447.1,189.8c32.3,13.3,58.3,38,78.2,73.7v-73.2h129.6v482.1c0,65.6-11.1,115-33.1,148.3c-37.9,57.2-110.7,85.8-218.2,85.8  c-65,0-118-12.7-159-38.3c-41-25.5-63.7-63.5-68.1-114.2h144.5c3.7,15.5,9.8,26.7,18.2,33.6c14.3,12.1,38.4,18.2,72.2,18.2  c47.8,0,79.9-16,96-48c10.5-20.5,15.8-55,15.8-103.5v-32.7c-12.7,21.8-26.4,38.1-41,49c-26.4,20.2-60.8,30.3-103,30.3  c-65.3,0-117.4-22.9-156.4-68.8s-58.5-107.9-58.5-186.3c0-75.5,18.8-139,56.4-190.5c37.6-51.5,90.8-77.1,159.7-77.1  C2405.9,178.1,2428.1,182,2447.1,189.8z M2492.3,554.1c21.3-23.5,32-60.8,32-112.1c0-48.1-10.1-84.8-30.4-110  c-20.3-25.2-47.4-37.8-81.5-37.8c-46.4,0-78.5,21.9-96.1,65.7c-9.3,23.3-13.9,52.1-13.9,86.3c0,29.6,4.9,55.8,14.9,78.8  c17.9,42.9,50.1,64.4,96.6,64.4C2444.8,589.4,2471,577.6,2492.3,554.1z"/>
<path d="M3043.3,178.4c1.7,0.2,5.5,0.4,11.4,0.7v136.1c-8.4-0.9-15.8-1.5-22.4-1.8c-6.5-0.3-11.8-0.5-15.8-0.5  c-53.4,0-89.4,17.4-107.7,52.2c-10.2,19.6-15.4,49.7-15.4,90.4v242.9h-133.8V190.3h126.8v88.6c20.5-33.9,38.4-57.1,53.6-69.4  c24.9-20.8,57.2-31.2,97-31.2C3039.5,178.1,3041.6,178.2,3043.3,178.4z"/>
<path d="M3321,389.3c24.7-3.1,42.4-7,53.1-11.7c19.1-8.1,28.6-20.6,28.6-37.8c0-20.8-7.3-35.2-22-43.1  c-14.6-7.9-36.2-11.9-64.5-11.9c-31.8,0-54.4,7.7-67.6,23.3c-9.5,11.5-15.7,27.1-18.9,46.6h-128.2c2.8-44.5,15.3-81,37.4-109.5  c35.3-44.7,95.8-67.2,181.7-67.2c55.9,0,105.5,11.1,148.9,33.1c43.4,22.1,65.1,63.7,65.1,125v233.1c0,16.2,0.3,35.8,0.9,58.7  c0.9,17.4,3.6,29.2,7.9,35.4c4.3,6.2,10.9,11.4,19.6,15.4v19.6h-144.5c-4-10.2-6.8-19.9-8.4-28.9s-2.8-19.3-3.7-30.8  c-18.4,19.9-39.7,36.8-63.8,50.8c-28.7,16.5-61.3,24.7-97.6,24.7c-46.3,0-84.5-13.1-114.6-39.4c-30.2-26.2-45.2-63.5-45.2-111.6  c0-62.5,24.3-107.7,72.8-135.7c26.6-15.2,65.8-26.1,117.4-32.7L3321,389.3z M3402.2,451.3c-8.5,5.3-17.1,9.6-25.8,12.8  c-8.7,3.3-20.5,6.3-35.7,9.1l-30.3,5.6c-28.3,5-48.7,11.1-61.1,18.2c-20.9,12.1-31.4,30.9-31.4,56.4c0,22.7,6.4,39.1,19.2,49.2  c12.8,10.1,28.3,15.1,46.6,15.1c29,0,55.8-8.4,80.2-25.2c24.5-16.8,37.1-47.4,38.1-91.9L3402.2,451.3L3402.2,451.3z"/>
<path d="M4272.5,192.1c21.8,8.7,41.5,23.9,59.2,45.7c14.3,17.7,23.9,39.5,28.9,65.3c3.1,17.1,4.6,42.1,4.6,75.1l-0.9,320.3h-136.1  V374.9c0-19.3-3.1-35.1-9.3-47.5c-11.8-23.6-33.6-35.5-65.3-35.5c-36.6,0-62,15.2-76,45.7c-7.1,16.2-10.8,35.6-10.8,58.3v302.6  h-133.8V395.8c0-30.2-3.1-52.1-9.3-65.8c-11.2-24.6-33.1-36.8-65.7-36.8c-37.9,0-63.4,12.3-76.5,36.8c-7.1,14-10.8,34.8-10.8,62.5  v305.9H3636V191.2h129.2v74.1c16.5-26.4,32-45.2,46.6-56.4c25.8-19.9,59.2-29.9,100.3-29.9c38.9,0,70.3,8.6,94.2,25.6  c19.3,15.8,33.9,36.2,43.8,61.1c17.4-29.9,39-51.8,64.8-65.7c27.4-14,57.8-21,91.4-21C4228.7,179,4250.7,183.4,4272.5,192.1z"/>
<path d="M5104.2,192.1c21.8,8.7,41.5,23.9,59.2,45.7c14.3,17.7,23.9,39.5,28.9,65.3c3.1,17.1,4.6,42.1,4.6,75.1l-0.9,320.3h-136.1  V374.9c0-19.3-3.1-35.1-9.3-47.5c-11.8-23.6-33.6-35.5-65.3-35.5c-36.7,0-62,15.2-76,45.7c-7.1,16.2-10.8,35.6-10.8,58.3v302.6  h-133.8V395.8c0-30.2-3.1-52.1-9.3-65.8c-11.2-24.6-33.1-36.8-65.7-36.8c-37.9,0-63.4,12.3-76.5,36.8c-7.1,14-10.7,34.8-10.7,62.5  v305.9h-134.8V191.2H4597v74.1c16.5-26.4,32-45.2,46.6-56.4c25.8-19.9,59.2-29.9,100.3-29.9c38.9,0,70.3,8.6,94.2,25.6  c19.3,15.8,33.9,36.2,43.8,61.1c17.4-29.9,39-51.8,64.8-65.7c27.4-14,57.8-21,91.4-21C5060.4,179,5082.5,183.4,5104.2,192.1z"/>
<path d="M5640,200.5c35.5,15.9,64.7,40.9,87.8,75.2c20.8,30.2,34.3,65.2,40.5,105.1c3.6,23.3,5,57,4.4,100.9h-370.1  c2,51,19.8,86.7,53.1,107.3c20.3,12.7,44.7,19.1,73.3,19.1c30.3,0,54.9-7.7,73.8-23.3c10.3-8.4,19.5-20.1,27.4-35h135.6  c-3.6,30.2-20,60.7-49.3,91.9c-45.6,49.4-109.2,74.1-191.2,74.1c-67.6,0-127.3-20.8-179-62.5c-51.7-41.7-77.5-109.5-77.5-203.4  c0-88,23.3-155.6,70-202.5c46.7-47,107.3-70.5,181.7-70.5C5564.8,176.8,5604.6,184.6,5640,200.5z M5441.3,315.3  c-18.8,19.4-30.6,45.6-35.4,78.7h228.9c-2.4-35.3-14.2-62.1-35.4-80.3c-21.2-18.2-47.4-27.4-78.8-27.4  C5486.5,286.3,5460,296,5441.3,315.3z"/>
<path d="M6122.4,178.4c1.7,0.2,5.5,0.4,11.4,0.7v136.1c-8.4-0.9-15.8-1.5-22.4-1.8c-6.5-0.3-11.8-0.5-15.8-0.5  c-53.4,0-89.4,17.4-107.7,52.2c-10.2,19.6-15.4,49.7-15.4,90.4v242.9h-133.8V190.3h126.8v88.6c20.5-33.9,38.4-57.1,53.6-69.4  c24.9-20.8,57.2-31.2,97-31.2C6118.6,178.1,6120.7,178.2,6122.4,178.4z"/>
<path d="M6302,536.2c2.8,23.6,8.9,40.4,18.3,50.3c16.6,17.7,47.2,26.6,91.8,26.6c26.2,0,47.1-3.9,62.5-11.7  c15.5-7.7,23.2-19.4,23.2-35c0-14.9-6.3-26.2-18.7-34c-12.5-7.8-58.8-21.1-139-40.1c-57.7-14.3-98.4-32.2-122-53.6  c-23.6-21.1-35.5-51.6-35.5-91.4c0-46.9,18.4-87.3,55.4-121c36.9-33.7,88.9-50.6,155.8-50.6c63.5,0,115.4,12.7,155.4,38  c40,25.3,63,69.1,68.9,131.3h-132.9c-1.9-17.1-6.7-30.6-14.5-40.6c-14.7-18-39.6-27.1-74.8-27.1c-29,0-49.6,4.5-62,13.5  c-12.3,9-18.4,19.6-18.4,31.7c0,15.2,6.5,26.3,19.6,33.1c13.1,7.1,59.3,19.4,138.7,36.8c52.9,12.4,92.6,31.2,119,56.4  c26.1,25.5,39.1,57.4,39.1,95.6c0,50.3-18.8,91.5-56.3,123.3c-37.6,31.8-95.5,47.8-174.1,47.8c-80,0-139.1-16.9-177.3-50.6  s-57.2-76.7-57.2-128.9H6302z"/>
<path d="M6719.9,559h141.3v139.4h-141.3V559z"/>
<path d="M7107.3,129.6h-134.7V7h134.7V129.6z M6972.6,190.3h134.7v508.2h-134.7V190.3z"/>
<path d="M7643.7,636.3c-42.9,52.9-108,79.4-195.3,79.4c-87.3,0-152.4-26.5-195.3-79.4s-64.4-116.7-64.4-191.2  c0-73.3,21.5-136.8,64.4-190.5s108-80.6,195.3-80.6c87.3,0,152.4,26.9,195.3,80.6s64.4,117.2,64.4,190.5  C7708,519.6,7686.6,583.3,7643.7,636.3z M7537.4,562.9c20.8-27.6,31.2-66.9,31.2-117.8s-10.4-90.1-31.2-117.5  c-20.8-27.5-50.7-41.2-89.5-41.2c-38.9,0-68.8,13.8-89.8,41.2c-21,27.5-31.5,66.6-31.5,117.5c0,50.9,10.5,90.2,31.5,117.8  c21,27.6,50.9,41.4,89.8,41.4C7486.7,604.3,7516.5,590.5,7537.4,562.9z"/>
</svg>